# xmcd CD database file
#
# Track frame offsets:
#	150
#	37005
#	49057
#	61227
#	73771
#	89174
#	101859
#	132977
#	148171
#	161536
#	174747
#	185859
#	199398
#
# Disc length: 2836 seconds
#
# Revision: 2
# Processed by: cddbd v1.5.2PL0 Copyright (c) Steve Scherf et al.
# Submitted via: CDex 1.51
#
DISCID=d40b120d
DTITLE=Dizzy Gillespie - Salt Peanuts  [CD 10-10]
DYEAR=1900
DGENRE=Jazz
TTITLE0=All The Things You Are
TTITLE1=Chattanooga Choo Choo
TTITLE2=Cocktails For Two
TTITLE3=Mrs. Finnigan
TTITLE4=North Of The Mohawk Trail
TTITLE5=Ool Ya Koo
TTITLE6=Wee
TTITLE7=Willow Weep For Me
TTITLE8=Oop Bop Sh'bam
TTITLE9=Ow !
TTITLE10=Round About Midnight
TTITLE11=I Can't Get Started
TTITLE12=I See A Million People  (But All I Can See Is You)
EXTD=
EXTT0=
EXTT1=
EXTT2=
EXTT3=
EXTT4=
EXTT5=
EXTT6=
EXTT7=
EXTT8=
EXTT9=
EXTT10=
EXTT11=
EXTT12=
PLAYORDER=
